<svg xmlns="http://www.w3.org/2000/svg" xmlns:xlink="http://www.w3.org/1999/xlink" xmlns:lucid="lucid" width="960" height="331"><g transform="translate(-300 -89)" lucid:page-tab-id="0_0"><path d="M320 160h160v80H320z" stroke="#000" stroke-width="2" fill="#fff"/><use xlink:href="#a" transform="matrix(1,0,0,1,320,160) translate(48.025 43.6)"/><path d="M624 180c8.84 0 16 8.95 16 20s-7.16 20-16 20h-48c-8.84 0-16-8.95-16-20s7.16-20 16-20z" stroke="#000" stroke-width="2" fill="#fff"/><use xlink:href="#b" transform="matrix(1,0,0,1,560,180) translate(25.5 23.6)"/><path d="M800 230c0 5.52-17.9 10-40 10s-40-4.48-40-10v-80c0-5.52 17.9-10 40-10s40 4.48 40 10z" stroke="#000" stroke-width="2" fill="#fff"/><path d="M800 150c0 5.52-17.9 10-40 10s-40-4.48-40-10" stroke="#000" stroke-width="2" fill="none"/><use xlink:href="#c" transform="matrix(1,0,0,1,720,160) translate(18.5 43.6)"/><path d="M1040 160h160v80h-160z" stroke="#000" stroke-width="2" fill="#fff"/><use xlink:href="#d" transform="matrix(1,0,0,1,1040,160) translate(51.25 43.6)"/><path d="M944 180c8.84 0 16 8.95 16 20s-7.16 20-16 20h-48c-8.84 0-16-8.95-16-20s7.16-20 16-20z" stroke="#000" stroke-width="2" fill="#fff"/><use xlink:href="#b" transform="matrix(1,0,0,1,880,180) translate(25.5 23.6)"/><path d="M480 200h79" stroke="#000" stroke-width="2" fill="none"/><path/><path d="M559 200l-14.27 4.64v-9.28z"/><path d="M560.1 199.3l-.1.7.03.72-16.3 5.3v-12.03zm-14.37 3.96l10.03-3.26-10.03-3.26z"/><path d="M640 200h40V100h80v40" stroke="#000" stroke-width="2" fill="none"/><path d="M640 201h-.12l.12-1-.04-1h.04zM760 140l-4.64-14.27h9.28z"/><path d="M761.03 140.06L760 140l-1.04.04-4.97-15.3h12zm-4.3-13.33l3.27 10.03 3.26-10.03z"/><path d="M760 240v40h80v-80h40" stroke="#000" stroke-width="2" fill="none"/><path d="M760 240h-1v-.06zm1 0h-1l1-.03zM880 200l-14.27 4.64v-9.28z"/><path d="M880.13 199l-.13 1 .04 1.04-15.3 4.97v-12zm-13.4 4.26l10.03-3.26-10.03-3.26z"/><path d="M960 200h79" stroke="#000" stroke-width="2" fill="none"/><path d="M960 201h-.12l.12-1-.04-1h.04zM1039 200l-14.27 4.64v-9.28z"/><path d="M1040 199.27v1.46l-16.27 5.28v-12zm-14.27 4l10.03-3.27-10.03-3.26z"/><path d="M720 320h160v80H720z" stroke="#000" stroke-width="2" fill="#fff"/><use xlink:href="#e" transform="matrix(1,0,0,1,720,320) translate(46.599999999999994 43.6)"/><path d="M1120 240v120H880" stroke="#000" stroke-width="2" fill="none"/><path d="M1124.64 254.27h-9.28L1120 240z"/><path d="M1126 255.27h-12l4.95-15.27h2.1zm-9.26-2h6.52l-3.26-10.03zM894.27 364.64L880 360l14.27-4.64z"/><path d="M895.27 366L880 361.06v-2.1l15.27-4.96zm-12.03-6l10.03 3.26v-6.52z"/><path d="M1060 140h160v80h-160z" stroke="#000" stroke-width="2" fill="#fff"/><use xlink:href="#d" transform="matrix(1,0,0,1,1060,140) translate(51.25 43.6)"/><path d="M964 160c8.84 0 16 8.95 16 20s-7.16 20-16 20h-48c-8.84 0-16-8.95-16-20s7.16-20 16-20z" stroke="#000" stroke-width="2" fill="#fff"/><use xlink:href="#b" transform="matrix(1,0,0,1,900,160) translate(25.5 23.6)"/><path d="M760 240v40h80V180h60" stroke="#000" stroke-width="2" fill="none"/><path d="M760 240h-1v-.06zm1 0h-1l1-.03zM900 180l-14.27 4.64v-9.28z"/><path d="M900.13 179l-.13 1 .04 1.04-15.3 4.97v-12zm-13.4 4.26l10.03-3.26-10.03-3.26z"/><path d="M980 180h80" stroke="#000" stroke-width="2" fill="none"/><path d="M980 181h-.12l.12-1-.04-1h.04zM1060 180l-14.27 4.64v-9.28z"/><path d="M1060 178.95v2.1l-15.27 4.96v-12zm-13.27 4.3l10.03-3.25-10.03-3.26z"/><path d="M880 360h260V220" stroke="#000" stroke-width="2" fill="none"/><path/><path d="M1144.64 234.27h-9.28L1140 220z"/><path d="M1146 235.27h-12l4.95-15.27h2.1zm-9.26-2h6.52l-3.26-10.03z"/><path d="M1080 120h160v80h-160z" stroke="#000" stroke-width="2" fill="#fff"/><use xlink:href="#d" transform="matrix(1,0,0,1,1080,120) translate(51.25 43.6)"/><path d="M984 140c8.84 0 16 8.95 16 20s-7.16 20-16 20h-48c-8.84 0-16-8.95-16-20s7.16-20 16-20z" stroke="#000" stroke-width="2" fill="#fff"/><use xlink:href="#b" transform="matrix(1,0,0,1,920,140) translate(25.5 23.6)"/><path d="M760 240v40h80V160h80" stroke="#000" stroke-width="2" fill="none"/><path d="M760 240h-1v-.06zm1 0h-1l1-.03zM920 160l-14.27 4.64v-9.28z"/><path d="M920.13 159l-.13 1 .04 1.04-15.3 4.97v-12zm-13.4 4.26l10.03-3.26-10.03-3.26z"/><path d="M1000 160h79" stroke="#000" stroke-width="2" fill="none"/><path d="M1000 161h-.12l.12-1-.04-1h.04zM1079 160l-14.27 4.64v-9.28z"/><path d="M1080 159.27v1.46l-16.27 5.28v-12zm-14.27 4l10.03-3.27-10.03-3.26z"/><path d="M880 360h280V200" stroke="#000" stroke-width="2" fill="none"/><path/><path d="M1164.64 214.27h-9.28L1160 200z"/><path d="M1166 215.27h-12l4.95-15.27h2.1zm-9.26-2h6.52l-3.26-10.03z"/><defs><path d="M153-248C145-148 188 4 80 4 36 3 13-21 6-62l32-5c4 25 16 42 43 43 27 0 39-20 39-49v-147H72v-28h81" id="f"/><path d="M100-194c62-1 85 37 85 99 1 63-27 99-86 99S16-35 15-95c0-66 28-99 85-99zM99-20c44 1 53-31 53-75 0-43-8-75-51-75s-53 32-53 75 10 74 51 75" id="g"/><path d="M115-194c53 0 69 39 70 98 0 66-23 100-70 100C84 3 66-7 56-30L54 0H23l1-261h32v101c10-23 28-34 59-34zm-8 174c40 0 45-34 45-75 0-40-5-75-45-74-42 0-51 32-51 76 0 43 10 73 51 73" id="h"/><path d="M185-189c-5-48-123-54-124 2 14 75 158 14 163 119 3 78-121 87-175 55-17-10-28-26-33-46l33-7c5 56 141 63 141-1 0-78-155-14-162-118-5-82 145-84 179-34 5 7 8 16 11 25" id="i"/><path d="M24-231v-30h32v30H24zM24 0v-190h32V0H24" id="j"/><path d="M117-194c89-4 53 116 60 194h-32v-121c0-31-8-49-39-48C34-167 62-67 57 0H25l-1-190h30c1 10-1 24 2 32 11-22 29-35 61-36" id="k"/><path d="M143 0L79-87 56-68V0H24v-261h32v163l83-92h37l-77 82L181 0h-38" id="l"/><g id="a"><use transform="matrix(0.05,0,0,0.05,0,0)" xlink:href="#f"/><use transform="matrix(0.05,0,0,0.05,9,0)" xlink:href="#g"/><use transform="matrix(0.05,0,0,0.05,19,0)" xlink:href="#h"/><use transform="matrix(0.05,0,0,0.05,29,0)" xlink:href="#i"/><use transform="matrix(0.05,0,0,0.05,41,0)" xlink:href="#j"/><use transform="matrix(0.05,0,0,0.05,44.95,0)" xlink:href="#k"/><use transform="matrix(0.05,0,0,0.05,54.95,0)" xlink:href="#l"/></g><g id="b"><use transform="matrix(0.05,0,0,0.05,0,0)" xlink:href="#f"/><use transform="matrix(0.05,0,0,0.05,9,0)" xlink:href="#g"/><use transform="matrix(0.05,0,0,0.05,19,0)" xlink:href="#h"/></g><path d="M141-36C126-15 110 5 73 4 37 3 15-17 15-53c-1-64 63-63 125-63 3-35-9-54-41-54-24 1-41 7-42 31l-33-3c5-37 33-52 76-52 45 0 72 20 72 64v82c-1 20 7 32 28 27v20c-31 9-61-2-59-35zM48-53c0 20 12 33 32 33 41-3 63-29 60-74-43 2-92-5-92 41" id="m"/><path d="M101-234c-31-9-42 10-38 44h38v23H63V0H32v-167H5v-23h27c-7-52 17-82 69-68v24" id="n"/><g id="c"><use transform="matrix(0.05,0,0,0.05,0,0)" xlink:href="#l"/><use transform="matrix(0.05,0,0,0.05,9,0)" xlink:href="#m"/><use transform="matrix(0.05,0,0,0.05,19,0)" xlink:href="#n"/><use transform="matrix(0.05,0,0,0.05,24,0)" xlink:href="#l"/><use transform="matrix(0.05,0,0,0.05,33,0)" xlink:href="#m"/></g><path d="M266 0h-40l-56-210L115 0H75L2-248h35L96-30l15-64 43-154h32l59 218 59-218h35" id="o"/><path d="M114-163C36-179 61-72 57 0H25l-1-190h30c1 12-1 29 2 39 6-27 23-49 58-41v29" id="p"/><path d="M100-194c63 0 86 42 84 106H49c0 40 14 67 53 68 26 1 43-12 49-29l28 8c-11 28-37 45-77 45C44 4 14-33 15-96c1-61 26-98 85-98zm52 81c6-60-76-77-97-28-3 7-6 17-6 28h103" id="q"/><g id="d"><use transform="matrix(0.05,0,0,0.05,0,0)" xlink:href="#o"/><use transform="matrix(0.05,0,0,0.05,16.599999999999998,0)" xlink:href="#g"/><use transform="matrix(0.05,0,0,0.05,26.599999999999994,0)" xlink:href="#p"/><use transform="matrix(0.05,0,0,0.05,32.55,0)" xlink:href="#l"/><use transform="matrix(0.05,0,0,0.05,41.55,0)" xlink:href="#q"/><use transform="matrix(0.05,0,0,0.05,51.54999999999999,0)" xlink:href="#p"/></g><path d="M127-220V0H93v-220H8v-28h204v28h-85" id="r"/><path d="M106-169C34-169 62-67 57 0H25v-261h32l-1 103c12-21 28-36 61-36 89 0 53 116 60 194h-32v-121c2-32-8-49-39-48" id="s"/><path d="M59-47c-2 24 18 29 38 22v24C64 9 27 4 27-40v-127H5v-23h24l9-43h21v43h35v23H59v120" id="t"/><path d="M24 0v-261h32V0H24" id="u"/><g id="e"><use transform="matrix(0.05,0,0,0.05,0,0)" xlink:href="#r"/><use transform="matrix(0.05,0,0,0.05,10.950000000000001,0)" xlink:href="#s"/><use transform="matrix(0.05,0,0,0.05,20.950000000000003,0)" xlink:href="#p"/><use transform="matrix(0.05,0,0,0.05,26.900000000000002,0)" xlink:href="#g"/><use transform="matrix(0.05,0,0,0.05,36.900000000000006,0)" xlink:href="#t"/><use transform="matrix(0.05,0,0,0.05,41.900000000000006,0)" xlink:href="#t"/><use transform="matrix(0.05,0,0,0.05,46.900000000000006,0)" xlink:href="#u"/><use transform="matrix(0.05,0,0,0.05,50.85000000000001,0)" xlink:href="#q"/><use transform="matrix(0.05,0,0,0.05,60.85,0)" xlink:href="#p"/></g></defs></g></svg>